<svg width="15" height="17" viewBox="0 0 15 17" fill="none" xmlns="http://www.w3.org/2000/svg">
<path d="M11.1925 0.00841571C10.3484 0.0974959 9.57426 0.455326 8.87464 1.08039C8.63129 1.29781 8.31037 1.68281 8.12634 1.97874C8.03356 2.1267 4.30119 8.46797 4.13998 8.75031C3.43122 9.99139 3.16506 11.2612 3.41449 12.2154C3.51639 12.6064 3.75214 12.9748 4.03655 13.1877C4.59473 13.6059 5.30653 13.627 6.0822 13.2511C6.46092 13.0669 6.81681 12.8102 7.18336 12.4569C7.56207 12.0916 7.88755 11.6884 8.17805 11.2264C8.3925 10.8837 10.1887 7.81724 10.2161 7.74628C10.2541 7.64814 10.2663 7.45035 10.242 7.34466C10.1674 7.02609 9.88149 6.80263 9.54993 6.80263C9.27768 6.80263 9.06323 6.93248 8.90962 7.18915C8.87616 7.24652 8.45182 7.9652 7.96816 8.78806C7.4845 9.6094 7.05256 10.3432 7.00541 10.4187C6.57499 11.1177 6.05179 11.6582 5.52554 11.9496C5.3841 12.0281 5.19702 12.0885 5.07079 12.0976C4.9628 12.1051 4.95367 12.1036 4.90805 12.0659C4.84569 12.0146 4.80462 11.9225 4.77268 11.7685C4.73466 11.5843 4.74987 11.1811 4.8031 10.9245C4.90196 10.4474 5.08447 9.96874 5.34151 9.51277C5.54075 9.15947 9.26704 2.8333 9.35677 2.69591C9.80697 2.00441 10.5279 1.52277 11.2579 1.42614C11.4617 1.39897 11.7827 1.41708 11.9682 1.46389C12.1583 1.51371 12.3925 1.62544 12.5507 1.74472C13.3158 2.31694 13.4998 3.54292 12.9811 4.60584C12.8884 4.79758 7.29439 14.314 7.16815 14.4952C6.46244 15.5113 5.04645 15.8857 3.90727 15.3558C3.73389 15.2758 2.74072 14.7141 2.53843 14.5813C2.22512 14.3759 1.87075 13.9758 1.69584 13.6286C1.33386 12.9114 1.33081 12.0659 1.68671 11.3608C1.73842 11.2612 2.92323 9.24402 5.95749 4.0925C6.47613 3.21227 6.9248 2.44075 6.95522 2.37884C7.00237 2.2807 7.00997 2.249 7.01454 2.1267C7.02214 1.96515 7.00541 1.88513 6.93545 1.75227C6.81834 1.52881 6.57042 1.38236 6.31034 1.38236C6.11414 1.38387 5.96053 1.44879 5.81604 1.59373C5.72935 1.67979 5.65939 1.79152 5.22136 2.53738C4.94759 3.0024 3.78864 4.97272 2.6449 6.91587C1.50116 8.85902 0.530805 10.5093 0.488219 10.5847C0.260079 10.9849 0.0958187 11.4846 0.0273768 11.9813C-0.00912559 12.238 -0.00912559 12.7212 0.0273768 12.9778C0.112549 13.5999 0.328521 14.1721 0.666168 14.6749C0.834991 14.924 0.950582 15.0644 1.16808 15.2803C1.50268 15.6125 1.6639 15.7242 2.40763 16.1485C3.35061 16.686 3.50118 16.7554 3.9818 16.8807C4.3742 16.9834 4.52629 17 5.00995 17C5.47839 17 5.62288 16.9849 5.99855 16.8943C6.54001 16.7614 7.14534 16.464 7.57424 16.1183C7.86626 15.8812 8.17349 15.5475 8.38185 15.235C8.47311 15.0991 14.0534 5.62648 14.1857 5.3834C14.4078 4.97423 14.5827 4.44429 14.6633 3.93396C14.6968 3.71504 14.7013 3.0643 14.6709 2.85444C14.572 2.20219 14.3546 1.6647 14.0017 1.20118C13.8922 1.05775 13.6428 0.801075 13.5044 0.687839C13.0861 0.348126 12.5781 0.123163 12.0214 0.031063C11.8511 0.00237669 11.3674 -0.00970133 11.1925 0.00841571Z" fill="#6B6B6B"/>
</svg>
